<?xml version="1.0" standalone="no"?>
<!DOCTYPE svg PUBLIC "-//W3C//DTD SVG 20010904//EN"
 "http://www.w3.org/TR/2001/REC-SVG-20010904/DTD/svg10.dtd">
<svg version="1.0" xmlns="http://www.w3.org/2000/svg"
 width="500.000000pt" height="500.000000pt" viewBox="0 0 500.000000 500.000000"
 preserveAspectRatio="xMidYMid meet">
<g transform="translate(0.000000,500.000000) scale(0.100000,-0.100000)"
fill="#000000" stroke="none">
<path d="M3235 3863 l-70 -4 -219 -562 c-120 -309 -222 -565 -225 -569 -3 -4
-112 234 -241 529 -129 294 -240 537 -247 540 -6 2 -129 1 -273 -4 l-263 -8
-206 -537 c-113 -295 -209 -535 -212 -533 -3 2 -122 252 -264 555 -142 303
-262 549 -265 548 -61 -24 -519 -245 -520 -250 0 -4 163 -353 361 -775 199
-422 382 -812 406 -865 l45 -97 147 6 c80 3 202 8 270 12 l124 6 201 522 c111
288 204 523 207 523 3 0 111 -239 240 -531 l234 -532 736 2 c598 2 737 0 742
-11 35 -88 291 -685 295 -690 11 -11 537 218 534 232 -3 15 -332 789 -932
2195 l-128 300 -204 1 c-111 0 -235 -1 -273 -3z m344 -1183 l110 -255 -221 -3
c-122 -1 -223 0 -226 3 -5 4 142 393 191 505 17 40 20 43 28 25 5 -11 58 -135
118 -275z"/>
</g>
</svg>
